<?xml version="1.0" encoding="UTF-8"?><svg id="Layer_2" xmlns="http://www.w3.org/2000/svg" viewBox="0 0 307.68 26.32"><defs><style>.cls-1{fill:#373737;stroke-width:0px;}</style></defs><g id="Layer_1-2"><path class="cls-1" d="m0,25.78V.53h9.15c7.59,0,12.68,4.84,12.68,12.64s-5.09,12.61-12.71,12.61H0Zm8.9-5.31c3.88,0,7.05-2.24,7.05-7.3s-3.17-7.34-7.05-7.34h-3.28v14.64h3.28Z"/><path class="cls-1" d="m37.02,16.38h-1.99v9.4h-5.62V.53h10c4.99,0,8.19,3.42,8.19,7.9,0,3.42-1.88,6.02-4.98,7.12l5.13,10.22h-6.2l-4.52-9.4Zm1.32-4.84c2.32,0,3.56-1.28,3.56-3.06,0-1.89-1.24-3.06-3.56-3.06h-3.31v6.12h3.31Z"/><path class="cls-1" d="m57.7,18.8c1.99,0,3.67,1.64,3.67,3.63s-1.67,3.67-3.67,3.67-3.63-1.71-3.63-3.67,1.64-3.63,3.63-3.63Z"/><path class="cls-1" d="m80.69,13.21c0-7.87,5.98-13.21,13.03-13.21,7.58,0,10.93,4.88,11.75,8.51l-5.31,1.67c-.39-1.74-1.99-4.7-6.44-4.7-3.38,0-7.2,2.42-7.2,7.73,0,4.74,3.49,7.48,7.27,7.48,4.38,0,6.13-2.92,6.62-4.74l5.38,1.53c-.82,3.49-4.17,8.83-12,8.83-7.27,0-13.1-5.24-13.1-13.1Z"/><path class="cls-1" d="m127.08,20.65h-9.76l-1.82,5.13h-5.91L119.1.53h6.52l9.4,25.25h-6.13l-1.82-5.13Zm-7.9-5.13h6.12l-3.02-8.72-3.1,8.72Z"/><path class="cls-1" d="m150.68,5.91v19.87h-5.63V5.91h-7.76V.53h21.19v5.38h-7.8Z"/><path class="cls-1" d="m181.15,25.78v-10.04h-10.08v10.04h-5.62V.53h5.62v9.9h10.08V.53h5.66v25.25h-5.66Z"/><path class="cls-1" d="m195.81,25.78V.53h15.99v5.31h-10.36v4.81h9.4v4.95h-9.4v4.84h10.4v5.34h-16.02Z"/><path class="cls-1" d="m227.74,16.38h-2v9.4h-5.62V.53h10c4.99,0,8.19,3.42,8.19,7.9,0,3.42-1.89,6.02-4.99,7.12l5.13,10.22h-6.2l-4.52-9.4Zm1.32-4.84c2.31,0,3.56-1.28,3.56-3.06,0-1.89-1.25-3.06-3.56-3.06h-3.31v6.12h3.31Z"/><path class="cls-1" d="m246.03,25.78V.53h5.7v25.25h-5.7Z"/><path class="cls-1" d="m276.72,25.78l-10.4-16.59v16.59h-5.59V.53h6.84l9.47,15.35V.53h5.63v25.25h-5.95Z"/><path class="cls-1" d="m291.66,25.78V.53h15.99v5.31h-10.36v4.81h9.4v4.95h-9.4v4.84h10.4v5.34h-16.02Z"/></g></svg>